HIERARCHY
ROOT Hips
{
  OFFSET 5.84602e-005 68.8428 3.50346
  CHANNELS 6 Xposition Yposition Zposition Zrotation Xrotation Yrotation
  JOINT Spine
  {
    OFFSET 0 8.597 -4.6522
    CHANNELS 3 Zrotation Xrotation Yrotation
    JOINT Spine1
    {
      OFFSET 0 7.8454 0.4098
      CHANNELS 3 Zrotation Xrotation Yrotation
      JOINT Spine2
      {
        OFFSET 0 9.7078 -2.1609
        CHANNELS 3 Zrotation Xrotation Yrotation
        JOINT Neck
        {
          OFFSET 0 21.8761 -0.4549
          CHANNELS 3 Zrotation Xrotation Yrotation
          JOINT Head
          {
            OFFSET 0 12.3537 3.3602
            CHANNELS 3 Zrotation Xrotation Yrotation
            End Site
            {
              OFFSET 0.0001 18.9506 0.5657
            }
          }
        }
        JOINT LeftShoulder
        {
          OFFSET 2.2086 21.1115 7.2329
          CHANNELS 3 Zrotation Xrotation Yrotation
          JOINT LeftArm
          {
            OFFSET 13.1193 3.0282 -4.8998
            CHANNELS 3 Zrotation Xrotation Yrotation
            JOINT LeftForeArm
            {
              OFFSET 27.4081 -0.0973053 -0.2375
              CHANNELS 3 Zrotation Xrotation Yrotation
              JOINT LeftHand
              {
                OFFSET 22.8641 0.0662994 -0.1369
                CHANNELS 3 Zrotation Xrotation Yrotation
                JOINT LeftHandIndex1
                {
                  OFFSET 8.8614 0.775009 2.4612
                  CHANNELS 3 Zrotation Xrotation Yrotation
                  JOINT LeftHandIndex2
                  {
                    OFFSET 3.3146 -0.808304 0.5841
                    CHANNELS 3 Zrotation Xrotation Yrotation
                    JOINT LeftHandIndex3
                    {
                      OFFSET 2.2628 -0.552002 0.3989
                      CHANNELS 3 Zrotation Xrotation Yrotation
                      End Site
                      {
                        OFFSET 1.6102 -0.4807 0.2612
                      }
                    }
                  }
                }
                JOINT LeftHandMiddle1
                {
                  OFFSET 8.9937 0.895004 0.2143
                  CHANNELS 3 Zrotation Xrotation Yrotation
                  JOINT LeftHandMiddle2
                  {
                    OFFSET 4.0984 0.0113983 -0.0242
                    CHANNELS 3 Zrotation Xrotation Yrotation
                    JOINT LeftHandMiddle3
                    {
                      OFFSET 2.2716 0.00689697 -0.0138001
                      CHANNELS 3 Zrotation Xrotation Yrotation
                      End Site
                      {
                        OFFSET 2.0404 -0.1441 0.0027
                      }
                    }
                  }
                }
                JOINT LeftHandRing1
                {
                  OFFSET 8.5234 0.597198 -2.0164
                  CHANNELS 3 Zrotation Xrotation Yrotation
                  JOINT LeftHandRing2
                  {
                    OFFSET 3.7188 -0.188293 -0.2328
                    CHANNELS 3 Zrotation Xrotation Yrotation
                    JOINT LeftHandRing3
                    {
                      OFFSET 2.1191 -0.106598 -0.1332
                      CHANNELS 3 Zrotation Xrotation Yrotation
                      End Site
                      {
                        OFFSET 1.8737 -0.2304 -0.0886
                      }
                    }
                  }
                }
                JOINT LeftHandPinky1
                {
                  OFFSET 7.9094 -0.601089 -3.4825
                  CHANNELS 3 Zrotation Xrotation Yrotation
                  JOINT LeftHandPinky2
                  {
                    OFFSET 2.2874 -0.477005 -0.6314
                    CHANNELS 3 Zrotation Xrotation Yrotation
                    JOINT LeftHandPinky3
                    {
                      OFFSET 1.6774 -0.349396 -0.4633
                      CHANNELS 3 Zrotation Xrotation Yrotation
                      End Site
                      {
                        OFFSET 1.4888 -0.4091 -0.3416
                      }
                    }
                  }
                }
                JOINT LeftHandThumb1
                {
                  OFFSET 1.833 -1.3875 1.3896
                  CHANNELS 3 Zrotation Xrotation Yrotation
                  JOINT LeftHandThumb2
                  {
                    OFFSET 3.4129 -1.121 2.5732
                    CHANNELS 3 Zrotation Xrotation Yrotation
                    JOINT LeftHandThumb3
                    {
                      OFFSET 2.2474 -0.804199 1.6192
                      CHANNELS 3 Zrotation Xrotation Yrotation
                      End Site
                      {
                        OFFSET 1.6527 -0.5689 1.1317
                      }
                    }
                  }
                }
              }
            }
          }
        }
        JOINT RightShoulder
        {
          OFFSET -2.2086 21.1115 7.2329
          CHANNELS 3 Zrotation Xrotation Yrotation
          JOINT RightArm
          {
            OFFSET -13.1216 3.0287 -4.9007
            CHANNELS 3 Zrotation Xrotation Yrotation
            JOINT RightForeArm
            {
              OFFSET -27.4081 -0.0973053 -0.2375
              CHANNELS 3 Zrotation Xrotation Yrotation
              JOINT RightHand
              {
                OFFSET -22.8641 0.0664063 -0.1369
                CHANNELS 3 Zrotation Xrotation Yrotation
                JOINT RightHandIndex1
                {
                  OFFSET -8.8614 0.774994 2.4612
                  CHANNELS 3 Zrotation Xrotation Yrotation
                  JOINT RightHandIndex2
                  {
                    OFFSET -3.3146 -0.808304 0.5841
                    CHANNELS 3 Zrotation Xrotation Yrotation
                    JOINT RightHandIndex3
                    {
                      OFFSET -2.2628 -0.552002 0.3989
                      CHANNELS 3 Zrotation Xrotation Yrotation
                      End Site
                      {
                        OFFSET -1.6102 -0.4807 0.2612
                      }
                    }
                  }
                }
                JOINT RightHandMiddle1
                {
                  OFFSET -8.9937 0.894989 0.2143
                  CHANNELS 3 Zrotation Xrotation Yrotation
                  JOINT RightHandMiddle2
                  {
                    OFFSET -4.0984 0.0113983 -0.0242
                    CHANNELS 3 Zrotation Xrotation Yrotation
                    JOINT RightHandMiddle3
                    {
                      OFFSET -2.2716 0.00691223 -0.0138001
                      CHANNELS 3 Zrotation Xrotation Yrotation
                      End Site
                      {
                        OFFSET -2.0404 -0.1441 0.0027
                      }
                    }
                  }
                }
                JOINT RightHandRing1
                {
                  OFFSET -8.5234 0.597198 -2.0164
                  CHANNELS 3 Zrotation Xrotation Yrotation
                  JOINT RightHandRing2
                  {
                    OFFSET -3.7188 -0.188309 -0.2328
                    CHANNELS 3 Zrotation Xrotation Yrotation
                    JOINT RightHandRing3
                    {
                      OFFSET -2.1191 -0.106598 -0.1332
                      CHANNELS 3 Zrotation Xrotation Yrotation
                      End Site
                      {
                        OFFSET -1.8737 -0.2304 -0.0886
                      }
                    }
                  }
                }
                JOINT RightHandPinky1
                {
                  OFFSET -7.9094 -0.601105 -3.4825
                  CHANNELS 3 Zrotation Xrotation Yrotation
                  JOINT RightHandPinky2
                  {
                    OFFSET -2.2874 -0.477005 -0.6314
                    CHANNELS 3 Zrotation Xrotation Yrotation
                    JOINT RightHandPinky3
                    {
                      OFFSET -1.6774 -0.349396 -0.4633
                      CHANNELS 3 Zrotation Xrotation Yrotation
                      End Site
                      {
                        OFFSET -1.4888 -0.4091 -0.3416
                      }
                    }
                  }
                }
                JOINT RightHandThumb1
                {
                  OFFSET -1.833 -1.38751 1.3896
                  CHANNELS 3 Zrotation Xrotation Yrotation
                  JOINT RightHandThumb2
                  {
                    OFFSET -3.41299 -1.12099 2.5732
                    CHANNELS 3 Zrotation Xrotation Yrotation
                    JOINT RightHandThumb3
                    {
                      OFFSET -2.24741 -0.804108 1.6192
                      CHANNELS 3 Zrotation Xrotation Yrotation
                      End Site
                      {
                        OFFSET -1.6527 -0.5689 1.1317
                      }
                    }
                  }
                }
              }
            }
          }
        }
      }
    }
  }
  JOINT RightUpLeg
  {
    OFFSET -9.1966 3.8861 -0.7581
    CHANNELS 3 Zrotation Xrotation Yrotation
    JOINT RightLeg
    {
      OFFSET -0.7359 -41.0265 0
      CHANNELS 3 Zrotation Xrotation Yrotation
      JOINT RightFoot
      {
        OFFSET 0 -40.2855 0
        CHANNELS 3 Zrotation Xrotation Yrotation
        JOINT RightToeBase
        {
          OFFSET 0 -5.6122 11.7359
          CHANNELS 3 Zrotation Xrotation Yrotation
          End Site
          {
            OFFSET 0 0 7.8731
          }
        }
      }
    }
  }
  JOINT LeftUpLeg
  {
    OFFSET 9.1965 3.8864 -0.7581
    CHANNELS 3 Zrotation Xrotation Yrotation
    JOINT LeftLeg
    {
      OFFSET 0.7359 -41.0268 0
      CHANNELS 3 Zrotation Xrotation Yrotation
      JOINT LeftFoot
      {
        OFFSET 0 -40.2855 0
        CHANNELS 3 Zrotation Xrotation Yrotation
        JOINT LeftToeBase
        {
          OFFSET 0 -5.6122 11.7359
          CHANNELS 3 Zrotation Xrotation Yrotation
          End Site
          {
            OFFSET 0 0 7.8731
          }
        }
      }
    }
  }
}
MOTION
Frames:	4
Frame Time:	0.0333333
5.84602e-005 68.8428 3.50346 0 0 -0 0 0 -0 0 0 -0 0 0 -0 0 0 -0.00321283 -0 0 3.88251e-019 0 0 -0.00321283 -0 0 3.88251e-019 -0 0 3.88251e-019 -0 0 3.88251e-019 -0 0 3.88251e-019 -0 0 3.88251e-019 -0 0 3.88251e-019 -0 0 3.88251e-019 -0.0146107 -8.87603e-005 -2.86459e-007 4.34707e-018 0 3.88251e-019 -0 0 3.88251e-019 -0.0187548 -0.00117592 5.8795e-005 7.76751e-018 7.76503e-019 1.16475e-018 -0 0 3.88251e-019 -0.012237 -0.00323932 0.000675349 -1.1293e-018 -1.55301e-018 3.88251e-019 -0 0 3.88251e-019 -0 0 3.88251e-019 -0 0 3.88251e-019 0 0 -0.00321283 -0 0 3.88251e-019 -0 0 3.88251e-019 -0 0 3.88251e-019 -0 0 3.88251e-019 -0 0 3.88251e-019 -0 0 3.88251e-019 -0 0 3.88251e-019 0.0149955 -9.10981e-005 3.09783e-007 5.08526e-018 -3.63986e-020 3.88251e-019 -0 0 3.88251e-019 0.0189976 -0.00119114 -5.96515e-005 4.76957e-018 5.82377e-019 7.76503e-019 -0 0 3.88251e-019 0.012301 -0.00325643 -0.000678524 -1.79144e-018 0 -7.76503e-019 -0 0 3.88251e-019 -0 0 3.88251e-019 -0 0 3.88251e-019 3.39842 1.33031 -0.0637918 -5.65207e-008 0.834868 -0.000436188 -3.39935 -2.16518 -0.0642563 -8.89002e-024 -1.18485e-023 -1.48106e-024 -3.39844 1.35642 0.0640283 -3.18788e-007 0.782166 -0.000588827 3.39931 -2.13858 0.0634662 1.1399e-023 0 -0 
24.2842 48.6373 15.6244 -133.331 55.5589 1.15288e-006 -0.0781492 3.09096 0.0932345 -0.161683 6.18179 0.19111 -0.161677 6.18181 0.191111 -0.00094193 11.8528 -0.0341999 8.80178e-007 2.97446 4.99798e-006 -15.2259 -0.832678 1.04985 -4.36951 -9.44466 -1.39931 -23.259 62.0049 -12.356 -6.16876 7.37652 4.55796 -1.27222e-014 -1.90833e-014 1.90833e-014 3.18055e-015 -2.22639e-014 1.59028e-014 -1.59028e-014 -2.38542e-014 1.43125e-014 -1.27222e-014 -1.90833e-014 1.90833e-014 -0.0146084 -8.68101e-005 -3.8766e-006 -1.59028e-014 1.59028e-015 -0 -1.27222e-014 -1.90833e-014 1.90833e-014 -0.0187726 -0.00117723 6.01317e-005 1.27222e-014 4.77083e-015 4.77083e-015 -1.27222e-014 -1.90833e-014 1.90833e-014 -0.0122526 -0.00324337 0.000678147 1.90833e-014 1.59028e-015 4.77083e-015 -1.27222e-014 -1.90833e-014 1.90833e-014 3.18055e-015 -2.22639e-014 1.59028e-014 -1.59028e-014 -2.38542e-014 1.43125e-014 15.7566 -0.897148 -0.718289 4.14538 -9.46145 1.25817 22.9189 61.9531 12.3906 6.27123 7.49645 -4.41922 1.76556e-031 -1.59028e-015 6.36111e-015 -3.18055e-015 1.59028e-015 4.77083e-015 3.18055e-015 0 1.59028e-015 1.76556e-031 -1.59028e-015 6.36111e-015 0.014991 -9.06813e-005 -4.98896e-006 -3.18055e-015 1.59028e-015 -0 1.76556e-031 -1.59028e-015 6.36111e-015 0.0190303 -0.00118966 -6.15165e-005 -6.36111e-015 -1.59028e-015 -4.77083e-015 1.76556e-031 -1.59028e-015 6.36111e-015 0.0123038 -0.00325819 -0.000677889 3.18055e-015 0 -4.77083e-015 1.76556e-031 -1.59028e-015 6.36111e-015 -3.18055e-015 1.59028e-015 4.77083e-015 3.18055e-015 0 1.59028e-015 -23.9763 14.7049 -26.5752 -42.1685 37.9945 46.9419 18.5427 7.14363 4.7078 1.89498e-007 -1.22686e-007 3.61915e-007 25.3627 15.913 26.3355 40.7282 38.295 -45.7527 -17.8782 6.89878 -6.0773 2.64834e-031 -3.18055e-015 4.77083e-015 
43.9083 34.8198 21.1195 166.67 80.5612 -4.00804e-007 -0.11642 4.53467 0.136578 -0.244933 9.06933 0.283748 -0.244934 9.06932 0.28375 -0.00914789 17.1569 0.122938 8.91409e-007 4.22945 1.5432e-006 -22.0173 -1.23632 1.43161 -6.49053 -13.6902 -2.06006 45.2663 81.6127 -94.8053 -9.15041 10.5223 6.64185 1.86554e-006 2.87041e-007 2.71414e-007 1.17673e-006 -2.00883e-007 1.8113e-007 1.59028e-015 2.18663e-015 -0 1.86554e-006 2.87041e-007 2.71414e-007 -0.0146425 -8.82027e-005 1.891e-006 3.97569e-016 -3.57812e-015 -9.54166e-015 1.86554e-006 2.87041e-007 2.71414e-007 -0.0187056 -0.00117284 6.30763e-005 -1.97941e-007 2.71948e-007 1.60768e-006 1.86554e-006 2.87041e-007 2.71414e-007 -0.0122843 -0.00325405 0.000672444 1.11319e-014 2.5842e-014 -6.36111e-015 1.86554e-006 2.87041e-007 2.71414e-007 1.17673e-006 -2.00883e-007 1.8113e-007 1.59028e-015 2.18663e-015 -0 22.7749 -1.32787 -0.959826 6.15019 -13.7155 1.85236 -45.2259 81.5796 94.3222 9.29095 10.6943 -6.44427 1.22785e-007 1.73848e-007 -1.54864e-008 -1.22785e-007 -1.73848e-007 1.54864e-008 2.45569e-007 3.47696e-007 -3.09728e-008 1.22785e-007 1.73848e-007 -1.54864e-008 0.0149674 -9.11572e-005 9.27498e-006 2.45571e-007 3.47692e-007 -3.10184e-008 1.22785e-007 1.73848e-007 -1.54864e-008 0.018997 -0.00119126 -5.99077e-005 5.26893e-007 2.37877e-007 2.26604e-006 1.22785e-007 1.73848e-007 -1.54864e-008 0.0122156 -0.00323352 -0.000670007 2.45567e-007 3.47694e-007 -3.10168e-008 1.22785e-007 1.73848e-007 -1.54864e-008 -1.22785e-007 -1.73848e-007 1.54864e-008 2.45569e-007 3.47696e-007 -3.09728e-008 -31.9133 19.8847 -40.385 -75.3869 36.4751 75.0367 27.6175 10.4201 6.19985 -1.43183e-007 1.38432e-007 -3.54749e-006 32.7457 18.753 40.4937 77.3229 37.8275 -76.6665 -26.3054 9.8424 -7.21361 8.76716e-007 1.20058e-008 8.64456e-009 
39.7377 38.6207 19.8385 -179.997 75.0068 2.55082e-010 -0.107305 4.33127 0.127489 -0.225277 8.66236 0.264279 -0.225277 8.66234 0.264279 -0.0249723 15.911 0.471416 7.27186e-008 3.76498 -2.00603e-008 -20.3967 -1.21145 1.14492 -6.01051 -12.7472 -1.91058 8.16909 80.4541 -54.7001 -8.06471 9.52292 6.1135 4.4456e-008 2.94063e-008 -2.48231e-009 4.4456e-008 2.94063e-008 -2.48234e-009 4.4456e-008 2.94063e-008 -2.48232e-009 4.4456e-008 2.94063e-008 -2.48231e-009 -0.0146606 -8.92007e-005 -1.08377e-006 4.4456e-008 2.94066e-008 -2.47858e-009 4.4456e-008 2.94063e-008 -2.48231e-009 -0.0187458 -0.0011754 6.31628e-005 4.4456e-008 2.94067e-008 -2.47796e-009 4.4456e-008 2.94063e-008 -2.48231e-009 -0.0123013 -0.00325719 0.000668602 4.44561e-008 2.94063e-008 -2.48043e-009 4.4456e-008 2.94063e-008 -2.48231e-009 4.4456e-008 2.94063e-008 -2.48234e-009 4.4456e-008 2.94063e-008 -2.48232e-009 21.0717 -1.29243 -0.724308 5.69686 -12.7704 1.71793 -8.40082 80.3873 54.5386 8.1911 9.67539 -5.93668 2.64834e-031 -2.38542e-015 6.36111e-015 1.59028e-015 -2.78299e-015 -0 -3.08973e-031 -2.78299e-015 -6.36111e-015 2.64834e-031 -2.38542e-015 6.36111e-015 0.0149971 -9.10504e-005 3.00166e-008 7.95139e-016 1.59028e-015 -0 2.64834e-031 -2.38542e-015 6.36111e-015 0.0189804 -0.00118998 -6.10611e-005 0 0 -3.18055e-015 2.64834e-031 -2.38542e-015 6.36111e-015 0.012278 -0.00325035 -0.000678959 7.95139e-016 -1.19271e-015 9.54166e-015 2.64834e-031 -2.38542e-015 6.36111e-015 1.59028e-015 -2.78299e-015 -0 -3.08973e-031 -2.78299e-015 -6.36111e-015 -30.6082 18.8207 -37.6608 -68.6568 38.165 69.6759 25.0302 9.51294 6.38397 -1.81621e-006 4.69215e-007 -9.35643e-009 31.5022 18.465 37.5817 69.083 39.2162 -69.8924 -23.9652 9.45548 -7.52698 -5.0979e-006 2.31877e-007 2.5969e-007 
